<?xml version="1.0" encoding="UTF-8"?>
<!-- Logo: Listou - Circular, cesta vista de cima, lista em espiral, verde e roxo -->
<svg id="listou-logo" xmlns="http://www.w3.org/2000/svg" viewBox="0 0 128 128" width="128" height="128" role="img" aria-labelledby="title desc">
  <title id="title">Listou</title>
  <desc id="desc">Logo inovadora: formato circular, cesta de compras vista de cima, lista em espiral colorida, verde e roxo</desc>
  <defs>
    <radialGradient id="bg" cx="64" cy="64" r="64" gradientUnits="userSpaceOnUse">
      <stop offset="0%" stop-color="#a7f3d0"/>
      <stop offset="100%" stop-color="#312e81"/>
    </radialGradient>
    <linearGradient id="basket" x1="0" y1="0" x2="128" y2="128" gradientUnits="userSpaceOnUse">
      <stop offset="0%" stop-color="#a3e635"/>
      <stop offset="100%" stop-color="#22d3ee"/>
    </linearGradient>
    <linearGradient id="spiral" x1="0" y1="0" x2="128" y2="128" gradientUnits="userSpaceOnUse">
      <stop offset="0%" stop-color="#c026d3"/>
      <stop offset="100%" stop-color="#fbbf24"/>
    </linearGradient>
    <filter id="glow" x="-20%" y="-20%" width="140%" height="140%">
      <feGaussianBlur stdDeviation="4" result="coloredBlur"/>
      <feMerge>
        <feMergeNode in="coloredBlur"/>
        <feMergeNode in="SourceGraphic"/>
      </feMerge>
    </filter>
    <filter id="shadow" x="-20%" y="-20%" width="140%" height="140%">
      <feDropShadow dx="0" dy="6" stdDeviation="6" flood-color="#000" flood-opacity="0.18"/>
    </filter>
  </defs>

  <!-- Fundo circular com gradiente -->
  <circle cx="64" cy="64" r="64" fill="url(#bg)"/>

  <!-- Cesta de compras vista de cima -->
  <ellipse cx="64" cy="80" rx="32" ry="18" fill="url(#basket)" filter="url(#shadow)"/>
  <ellipse cx="64" cy="80" rx="24" ry="10" fill="#fff" opacity="0.8"/>
  <!-- Alças -->
  <path d="M48 68 Q64 54 80 68" stroke="#fff" stroke-width="3" fill="none"/>

  <!-- Lista em espiral colorida -->
  <path d="M64 60 Q74 62 70 72 Q66 82 80 84 Q94 86 84 98 Q74 110 64 100 Q54 90 44 98 Q34 106 44 84 Q54 62 64 60" stroke="url(#spiral)" stroke-width="4" fill="none" filter="url(#glow)"/>

  <!-- Efeito de brilho -->
  <ellipse cx="64" cy="116" rx="20" ry="5" fill="#fff" opacity="0.13"/>

  <!-- Detalhe de brilho na cesta -->
  <ellipse cx="74" cy="86" rx="7" ry="2" fill="#fff" opacity="0.18"/>
</svg>
