<?xml version="1.0" encoding="UTF-8"?>
<!-- Logo: Listou - Prancheta com itens selecionados, visual de app todo -->
<svg id="listou-logo" xmlns="http://www.w3.org/2000/svg" viewBox="0 0 128 128" width="128" height="128" role="img" aria-labelledby="title desc">
  <title id="title">Listou</title>
  <desc id="desc">Logo com prancheta e itens selecionados, visual de app todo, tons suaves</desc>
  <defs>
    <radialGradient id="bg" cx="64" cy="64" r="64" gradientUnits="userSpaceOnUse">
      <stop offset="0%" stop-color="#60a5fa"/>
      <stop offset="100%" stop-color="#3b82f6"/>
    </radialGradient>
    <linearGradient id="clipboardGradient" x1="0%" y1="0%" x2="100%" y2="100%">
      <stop offset="0%" stop-color="#f8fafc"/>
      <stop offset="100%" stop-color="#e2e8f0"/>
    </linearGradient>
    <linearGradient id="paperGradient" x1="0%" y1="0%" x2="100%" y2="100%">
      <stop offset="0%" stop-color="#ffffff"/>
      <stop offset="100%" stop-color="#f9fafb"/>
    </linearGradient>
    <linearGradient id="checkGradient" x1="0%" y1="0%" x2="100%" y2="100%">
      <stop offset="0%" stop-color="#34d399"/>
      <stop offset="100%" stop-color="#10b981"/>
    </linearGradient>
    <filter id="softShadow" x="-30%" y="-30%" width="160%" height="160%">
      <feDropShadow dx="0" dy="3" stdDeviation="4" flood-color="#000" flood-opacity="0.08"/>
    </filter>
    <filter id="gentleShadow" x="-20%" y="-20%" width="140%" height="140%">
      <feDropShadow dx="0" dy="2" stdDeviation="2" flood-color="#000" flood-opacity="0.06"/>
    </filter>
  </defs>

  <!-- Fundo azul claro tranquilo -->
  <rect x="0" y="0" width="128" height="128" rx="20" fill="url(#bg)"/>

  <!-- Sombra da prancheta -->
  <ellipse cx="64" cy="100" rx="30" ry="6" fill="#0ea5e9" opacity="0.08"/>

  <!-- Prancheta -->
  <rect x="40" y="32" width="48" height="64" rx="6" fill="url(#clipboardGradient)" filter="url(#softShadow)"/>
  
  <!-- Clipe da prancheta -->
  <rect x="58" y="28" width="12" height="8" rx="2" fill="#64748b" opacity="0.7"/>
  <rect x="60" y="30" width="8" height="4" rx="1" fill="#94a3b8" opacity="0.8"/>

  <!-- Papel da lista -->
  <rect x="44" y="40" width="40" height="52" rx="3" fill="url(#paperGradient)" filter="url(#gentleShadow)"/>

  <!-- Linhas de itens da lista -->
  <!-- Item 1 - Selecionado -->
  <circle cx="50" cy="50" r="4" fill="url(#checkGradient)" opacity="0.9"/>
  <path d="M48 50 L49.5 51.5 L52 49" stroke="#ffffff" stroke-width="1.5" fill="none" stroke-linecap="round"/>
  <rect x="58" y="48" width="20" height="2" rx="1" fill="#94a3b8" opacity="0.4"/>
  <line x1="58" y1="50" x2="78" y2="50" stroke="#94a3b8" stroke-width="1" opacity="0.3"/>

  <!-- Item 2 - Selecionado -->
  <circle cx="50" cy="62" r="4" fill="url(#checkGradient)" opacity="0.9"/>
  <path d="M48 62 L49.5 63.5 L52 61" stroke="#ffffff" stroke-width="1.5" fill="none" stroke-linecap="round"/>
  <rect x="58" y="60" width="18" height="2" rx="1" fill="#94a3b8" opacity="0.4"/>
  <line x1="58" y1="62" x2="76" y2="62" stroke="#94a3b8" stroke-width="1" opacity="0.3"/>

  <!-- Item 3 - Não selecionado -->
  <circle cx="50" cy="74" r="4" fill="#e2e8f0" stroke="#cbd5e1" stroke-width="1"/>
  <rect x="58" y="72" width="16" height="2" rx="1" fill="#64748b" opacity="0.6"/>

  <!-- Item 4 - Selecionado -->
  <circle cx="50" cy="86" r="4" fill="url(#checkGradient)" opacity="0.9"/>
  <path d="M48 86 L49.5 87.5 L52 85" stroke="#ffffff" stroke-width="1.5" fill="none" stroke-linecap="round"/>
  <rect x="58" y="84" width="22" height="2" rx="1" fill="#94a3b8" opacity="0.4"/>
  <line x1="58" y1="86" x2="80" y2="86" stroke="#94a3b8" stroke-width="1" opacity="0.3"/>

  <!-- Detalhes de brilho suaves -->
  <ellipse cx="64" cy="20" rx="16" ry="3" fill="#ffffff" opacity="0.3"/>
  <ellipse cx="64" cy="112" rx="24" ry="4" fill="#0ea5e9" opacity="0.04"/>
  
  <!-- Pontos decorativos tranquilos -->
  <circle cx="108" cy="36" r="2" fill="#34d399" opacity="0.4"/>
  <circle cx="24" cy="88" r="1.5" fill="#60a5fa" opacity="0.5"/>
  <circle cx="100" cy="100" r="1" fill="#a78bfa" opacity="0.4"/>
</svg>
